# Blender 4.2.1 LTS
# www.blender.org
mtllib arbol.mtl
o arbol.009
v -11.000000 0.000000 0.000000
v 11.000000 0.000000 -0.000000
v -11.000000 15.000002 0.000000
v 11.000001 15.000002 0.000000
v -9.526280 0.000000 5.500000
v 9.526279 0.000000 -5.500001
v -9.526280 15.000002 5.500001
v 9.526280 15.000002 -5.500000
v -5.500000 0.000000 9.526279
v 5.500000 0.000000 -9.526280
v -5.500000 15.000002 9.526281
v 5.500000 15.000002 -9.526279
v 0.000000 0.000000 11.000000
v -0.000000 0.000000 -11.000000
v 0.000001 15.000002 11.000000
v 0.000000 15.000002 -11.000000
v 5.500000 0.000000 9.526279
v -5.500001 0.000000 -9.526279
v 5.500001 15.000002 9.526279
v -5.500000 15.000002 -9.526280
v 9.526279 0.000000 5.500001
v -9.526279 0.000000 -5.500000
v 9.526280 15.000002 5.500000
v -9.526279 15.000002 -5.500001
vn -0.0000 -0.0000 1.0000
vn 0.5000 -0.0000 0.8660
vn 0.8660 -0.0000 0.5000
vn 1.0000 -0.0000 -0.0000
vn 0.8660 -0.0000 -0.5000
vn 0.5000 -0.0000 -0.8660
vt 0.008454 0.212891
vt 0.980552 0.212891
vt 0.980552 0.846882
vt 0.008454 0.846882
s 0
usemtl arbol
f 1/1/1 2/2/1 4/3/1 3/4/1
usemtl arbol.003
f 5/1/2 6/2/2 8/3/2 7/4/2
usemtl arbol.005
f 9/1/3 10/2/3 12/3/3 11/4/3
usemtl arbol.007
f 13/1/4 14/2/4 16/3/4 15/4/4
usemtl arbol.009
f 17/1/5 18/2/5 20/3/5 19/4/5
usemtl arbol.011
f 21/1/6 22/2/6 24/3/6 23/4/6
